<svg width="264" height="101" viewBox="0 0 264 101" fill="none" xmlns="http://www.w3.org/2000/svg" xmlns:xlink="http://www.w3.org/1999/xlink"><path d="M226.209 40.3972V28.452H211.731V40.3972H207.139V12.8242H211.731V24.1977H226.209V12.8242H230.802V40.3972H226.209Z" fill="#EA5A62"/><path d="M257.594 40.3789L246.841 28.698H241.843C241.843 35.3008 241.843 39.2108 241.899 40.4158H237.306C237.361 37.6554 237.361 33.0384 237.361 26.6262C237.361 20.214 237.361 15.597 237.306 12.8428H241.899C241.843 15.1974 241.843 19.0459 241.843 24.4437H246.958L257.354 12.8428H263.127L251.09 26.2389L264 40.4281L257.594 40.3789Z" fill="#EA5A62"/><path d="M201.089 35.7376C200.919 36.0881 200.658 36.3869 200.334 36.6031C200.01 36.8193 199.634 36.9449 199.245 36.9671C198.982 36.9725 198.721 36.9237 198.477 36.8239C198.234 36.724 198.014 36.5752 197.831 36.3867C197.647 36.1981 197.505 35.9739 197.412 35.7279C197.319 35.4819 197.277 35.2195 197.29 34.9568V21.4316C197.29 16.1506 192.753 12.2959 186.605 12.2959C182.806 12.2959 179.639 13.5255 177.697 15.5481L180.771 18.622C181.779 17.331 183.777 16.4949 186.261 16.4949C189.999 16.4949 192.697 18.8495 192.697 22.0279V24.0936C188.449 24.5547 185.461 24.9543 183.679 25.3539C178.146 26.5035 174.887 29.436 174.887 33.8563C174.887 38.1598 178.336 41.037 183.623 41.037C187.355 41.037 190.386 40.2624 192.845 37.4467C193.361 39.9058 195.771 41.037 198.815 41.037C199.793 41.041 200.76 40.8293 201.647 40.417C202.535 40.0047 203.32 39.402 203.948 38.6516L201.102 35.8052L201.089 35.7376ZM192.716 32.2825C191.74 33.6432 190.456 34.7536 188.968 35.523C187.481 36.2923 185.833 36.6987 184.158 36.7089C181.459 36.7089 179.676 35.5162 179.676 33.2723C179.676 31.4279 181.109 30.0693 183.58 29.3807C185.48 28.8643 188.498 28.6491 192.716 28.1511V32.3009V32.2825Z" fill="#EA5A62"/><path d="M157.661 12.7813C154.255 12.7853 150.97 14.0487 148.439 16.3286C148.734 13.8787 149.913 11.6206 151.755 9.97816C153.596 8.33573 155.974 7.42188 158.442 7.40812V7.45116C161.983 7.25443 164.7 6.88556 166.754 6.2216C168.525 5.59473 170.144 4.60182 171.506 3.30752L168.198 0C167.226 0.895862 166.093 1.60077 164.86 2.07796C163.483 2.65585 161.688 2.76652 158.442 2.91406C154.589 2.93332 150.898 4.46916 148.169 7.18916C145.44 9.90915 143.891 13.5945 143.859 17.4475V26.6078C143.859 29.3424 144.67 32.0156 146.189 34.2894C147.709 36.5631 149.868 38.3353 152.394 39.3818C154.921 40.4283 157.701 40.7021 160.383 40.1686C163.065 39.6351 165.529 38.3182 167.462 36.3846C169.396 34.4509 170.713 31.9873 171.246 29.3052C171.78 26.6231 171.506 23.8431 170.46 21.3166C169.413 18.7902 167.641 16.6308 165.367 15.1115C163.093 13.5922 160.42 12.7813 157.686 12.7813H157.661ZM157.661 35.934C155.816 35.934 154.013 35.3871 152.48 34.3623C150.946 33.3375 149.751 31.8809 149.045 30.1768C148.339 28.4726 148.154 26.5974 148.514 24.7883C148.874 22.9792 149.762 21.3174 151.066 20.0131C152.371 18.7088 154.032 17.8206 155.842 17.4607C157.651 17.1009 159.526 17.2856 161.23 17.9915C162.934 18.6973 164.391 19.8927 165.415 21.4264C166.44 22.9601 166.987 24.7632 166.987 26.6078C166.984 29.0803 166 31.4505 164.252 33.1988C162.504 34.9472 160.133 35.9308 157.661 35.934Z" fill="#EA5A62"/><path d="M25.034 36.6224H28.7595V46.3237H24.3392V40.5816H4.42029V46.3237H0V36.6224C1.14995 36.3107 2.21633 35.7475 3.12215 34.9735C4.02797 34.1995 4.75063 33.234 5.23795 32.1468C5.74705 30.7828 6.05359 29.3515 6.14783 27.8987C6.60891 24.1669 6.60891 20.552 6.60891 13.0332H25.0524V36.6224H25.034ZM20.6751 36.6224V17.017H11.2075C11.0661 28.6979 10.1255 33.7637 6.76261 36.6224H20.6751Z" fill="#EA5A62"/><path d="M82.3194 40.5262V17.0108H71.7697C71.7697 26.0235 71.5668 31.8824 70.3188 35.6018C69.4982 38.0026 67.9647 40.0958 65.9231 41.6021L62.6525 38.3192C64.2556 37.159 65.4827 35.5536 66.1813 33.7022C66.7961 32.2205 66.876 30.2655 67.0482 26.5338C67.0482 22.8021 67.165 19.1134 67.165 12.9717H86.9118V40.5262H82.3194Z" fill="#EA5A62"/><path d="M58.0661 35.67C55.607 39.1927 51.3035 41.1538 46.3422 41.1538C38.1964 41.1538 32.0547 35.2458 32.0547 26.8109C32.0547 18.3761 37.9074 12.4619 45.998 12.4619C53.5782 12.4619 60.138 17.915 60.138 25.9871C60.1546 26.9859 60.0784 27.9841 59.9105 28.9688H36.475C37.3357 33.967 41.1227 37.004 46.4037 37.004C50.0186 37.004 53.4614 35.2273 55.0107 32.5284L58.0846 35.6515L58.0661 35.67ZM36.4135 24.8006H55.6009C55.2868 22.4825 54.1657 20.3492 52.4347 18.7757C47.4427 14.2386 36.7024 17.1097 36.4135 24.8006Z" fill="#EA5A62"/><path d="M124.567 12.9775H105.81C103.994 12.9775 102.196 13.3354 100.518 14.0306C98.8399 14.7258 97.3154 15.7448 96.0314 17.0294C94.7474 18.3139 93.7291 19.8389 93.0346 21.5171C92.3401 23.1953 91.9831 24.9939 91.9839 26.8101C91.9839 30.4772 93.4406 33.994 96.0336 36.5869C98.6265 39.1799 102.143 40.6366 105.81 40.6366H124.567C128.234 40.6366 131.751 39.1799 134.344 36.5869C136.937 33.994 138.394 30.4772 138.394 26.8101C138.395 24.9939 138.038 23.1953 137.343 21.5171C136.649 19.8389 135.63 18.3139 134.346 17.0294C133.062 15.7448 131.538 14.7258 129.86 14.0306C128.182 13.3354 126.384 12.9775 124.567 12.9775ZM124.414 36.5667C122.482 36.568 120.594 35.9963 118.987 34.924C117.381 33.8517 116.129 32.3271 115.389 30.5429C114.649 28.7587 114.456 26.7953 114.832 24.9009C115.209 23.0065 116.139 21.2664 117.504 19.9007C118.87 18.535 120.61 17.605 122.504 17.2285C124.399 16.852 126.362 17.0459 128.146 17.7856C129.931 18.5253 131.455 19.7775 132.528 21.384C133.6 22.9904 134.171 24.8787 134.17 26.8101C134.169 29.3973 133.14 31.878 131.311 33.7073C129.481 35.5367 127.001 36.5651 124.414 36.5667Z" fill="#EA5A62"/><path d="M5.09034 67.1772C4.2438 67.2115 3.40116 67.045 2.63121 66.6915C2.02431 66.3963 1.50037 65.9547 1.10654 65.4066C0.722373 64.8506 0.452774 64.2236 0.313475 63.5623C0.159615 62.8513 0.0833457 62.1257 0.0860047 61.3983C0.0860047 60.9372 0.0860046 60.4577 0.147483 59.9535C0.190218 59.4514 0.264134 58.9525 0.368805 58.4596C0.469756 57.9811 0.605366 57.5106 0.774561 57.0518C0.922739 56.6159 1.12957 56.2022 1.38934 55.8222C1.82745 55.1898 2.43462 54.6934 3.14147 54.3898C3.98049 54.0801 4.86619 53.9158 5.76045 53.9041L6.76254 53.8303C7.14251 53.8322 7.52097 53.7825 7.8876 53.6828C8.06766 53.6222 8.21741 53.4944 8.30565 53.3262H9.76883C9.7428 53.5806 9.65161 53.824 9.50408 54.0329C9.35654 54.2419 9.15765 54.4092 8.92658 54.5189C8.26857 54.7694 7.57113 54.9006 6.86706 54.9062L5.28092 54.9984C4.75809 54.9913 4.23911 55.0888 3.75451 55.2852C3.26991 55.4815 2.82946 55.7728 2.45907 56.1419C1.72427 57.0953 1.27643 58.2383 1.16802 59.4371H1.2295C1.60574 58.773 2.16482 58.231 2.84023 57.8756C3.56769 57.4706 4.38685 57.2589 5.21944 57.2608C5.89184 57.2522 6.56031 57.3647 7.19289 57.5928C7.76512 57.8067 8.28647 58.1375 8.7237 58.5641C9.16736 59.0008 9.50948 59.5297 9.7258 60.1134C10.2013 61.4347 10.2013 62.8804 9.7258 64.2017C9.50747 64.793 9.16348 65.33 8.71755 65.7755C8.27066 66.2301 7.73204 66.5843 7.13756 66.8145C6.4838 67.0616 5.78914 67.1826 5.09034 67.1711V67.1772ZM5.09034 66.2059C5.59678 66.2119 6.09904 66.1135 6.56581 65.9169C7.0086 65.73 7.40671 65.4513 7.7339 65.0993C8.06968 64.7297 8.3288 64.2971 8.49623 63.8267C8.68154 63.3038 8.77311 62.7522 8.76674 62.1975C8.77215 61.6508 8.68056 61.1076 8.49623 60.5929C8.32912 60.1351 8.06964 59.7166 7.7339 59.3633C7.40982 59.0206 7.01843 58.7485 6.58426 58.5641C6.13531 58.3652 5.649 58.2646 5.15796 58.269C4.63623 58.2638 4.11844 58.3598 3.6333 58.5518C3.1893 58.7256 2.78857 58.9941 2.45907 59.3387C2.12333 59.692 1.86384 60.1105 1.69674 60.5683C1.50853 61.0883 1.41686 61.6384 1.42623 62.1913C1.4168 62.7463 1.50846 63.2984 1.69674 63.8205C1.86344 64.2931 2.12259 64.7278 2.45907 65.0993C2.78513 65.4526 3.18354 65.7315 3.62715 65.9169C4.09166 66.1139 4.59199 66.2123 5.09648 66.2059H5.09034Z" fill="#EA5A62"/><path d="M15.2834 67.1774C14.8075 67.1793 14.3329 67.1257 13.8694 67.0175C13.4603 66.925 13.0724 66.756 12.7259 66.5195C12.4007 66.2932 12.1349 65.9916 11.9513 65.6404C11.7571 65.2602 11.6599 64.8378 11.6685 64.4108C11.6339 63.8417 11.8138 63.2802 12.1726 62.837C12.5332 62.4428 12.988 62.1466 13.4944 61.9763C14.0914 61.7664 14.7101 61.6241 15.3388 61.5521L17.4352 61.3246C17.6975 61.3001 17.9372 61.2693 18.1545 61.2324C18.3436 61.2012 18.5251 61.1344 18.6893 61.0357C18.8286 60.9401 18.9391 60.8083 19.009 60.6545C19.092 60.4605 19.1319 60.2507 19.1258 60.0398C19.14 59.7001 19.0636 59.3627 18.9045 59.0623C18.7614 58.8037 18.5483 58.5906 18.2897 58.4475C18.0125 58.2895 17.708 58.1852 17.3921 58.1401C17.0282 58.082 16.6602 58.0532 16.2917 58.054C15.574 58.0246 14.8637 58.2086 14.2506 58.5827C13.9808 58.7719 13.7628 59.0259 13.6167 59.3213C13.4706 59.6167 13.4011 59.9441 13.4145 60.2734H12.1296C12.1299 59.7883 12.2489 59.3106 12.476 58.882C12.7032 58.4534 13.0317 58.0868 13.4329 57.8142C14.3608 57.2639 15.4292 56.9968 16.5069 57.0457C16.9828 57.0474 17.4578 57.0885 17.927 57.1687C18.3756 57.2407 18.807 57.3949 19.1996 57.6236C19.5794 57.855 19.8945 58.1785 20.1156 58.5643C20.3736 59.0496 20.4967 59.5952 20.4722 60.1443V65.247C20.4722 65.7203 20.7304 65.9601 21.2468 65.9601C21.3904 65.9651 21.5333 65.9378 21.6649 65.8802V66.8147L21.253 66.87C21.1035 66.8776 20.9537 66.8776 20.8042 66.87C20.5309 66.8802 20.258 66.8406 19.9988 66.7532C19.8158 66.681 19.6547 66.5623 19.5316 66.4089C19.4175 66.2501 19.3418 66.067 19.3103 65.874C19.277 65.6502 19.2606 65.4241 19.2611 65.1978H19.218C18.9989 65.4897 18.7585 65.765 18.4988 66.0216C18.2596 66.2649 17.9862 66.472 17.6872 66.6364C17.3585 66.8055 17.0093 66.9315 16.6483 67.0114C16.2034 67.1029 15.7499 67.1462 15.2957 67.1405L15.2834 67.1774ZM15.3695 66.1999C15.8563 66.2015 16.3408 66.1331 16.8081 65.997C17.2424 65.8682 17.6489 65.6597 18.0069 65.3822C18.3444 65.1266 18.6232 64.8017 18.8246 64.4293C19.0285 64.0387 19.132 63.6034 19.1258 63.1628V61.632H19.0828C19.0274 61.7121 18.9563 61.7801 18.8739 61.8318C18.7915 61.8836 18.6994 61.9181 18.6033 61.9333C18.4011 61.9887 18.1958 62.0318 17.9885 62.0624C17.429 62.1484 16.8573 62.2284 16.2671 62.296C15.7209 62.356 15.1803 62.4588 14.6502 62.6034C14.2113 62.7203 13.8025 62.9299 13.4514 63.2182C13.2951 63.3504 13.1711 63.5167 13.0891 63.7042C13.007 63.8918 12.969 64.0957 12.978 64.3002C12.9736 64.5779 13.0437 64.8518 13.1809 65.0933C13.3121 65.333 13.4922 65.5425 13.7096 65.708C13.9396 65.8785 14.1976 66.0075 14.4719 66.0892C14.7642 66.1694 15.0665 66.2066 15.3695 66.1999Z" fill="#EA5A62"/><path d="M23.2758 57.2979H24.5914V61.3616H30.7085V57.2979H32.0241V66.9192H30.7085V62.3698H24.5914V66.9192H23.2758V57.2979Z" fill="#EA5A62"/><path d="M34.7168 57.2979H36.0324V62.2407L42.0081 57.2979H43.7603L39.1863 61.0665L44.0308 66.9192H42.3831L38.2272 61.8657L36.0324 63.6731V66.9192H34.7168V57.2979Z" fill="#EA5A62"/><path d="M51.814 65.9043H53.0866C53.6412 64.954 54.0241 63.9135 54.2178 62.8304C54.4781 61.4111 54.5976 59.9696 54.5743 58.5269V57.2666H61.8165V65.8736H63.4272V69.925H62.0931V66.8818H53.1296V69.925H51.814V65.8736V65.9043ZM60.5008 65.9043V58.2994H55.8224V58.9695C55.8449 60.3611 55.713 61.7508 55.4289 63.1132C55.2339 64.0878 54.8962 65.0283 54.4268 65.9043H60.5008Z" fill="#EA5A62"/><path d="M64.9272 67.0053H64.6751L64.3739 66.9684L64.085 66.9254L63.8821 66.8762V65.831C64.0468 65.8778 64.2156 65.9087 64.3862 65.9233C64.5735 65.9506 64.7625 65.965 64.9518 65.9663C65.105 65.9643 65.2575 65.9457 65.4067 65.911C65.6007 65.8555 65.7753 65.7469 65.9109 65.5974C66.117 65.3663 66.2795 65.0997 66.3904 64.8105C66.5767 64.3245 66.7087 63.8193 66.7839 63.3043C66.8945 62.6895 66.9867 61.8595 67.0544 60.882C67.122 59.9045 67.1589 58.7119 67.1589 57.2979H74.3887V66.9131H73.0731V58.3061H68.4376C68.4376 59.6955 68.3946 60.8759 68.3024 61.8411C68.2388 62.6568 68.1134 63.4666 67.9273 64.2634C67.8043 64.7953 67.6099 65.3082 67.3495 65.788C67.1706 66.1085 66.9279 66.3889 66.6363 66.6118C66.3938 66.7867 66.1138 66.9025 65.8186 66.9499C65.5316 66.992 65.2419 67.0126 64.9518 67.0114L64.9272 67.0053Z" fill="#EA5A62"/><path d="M79.7926 63.015C78.9569 63.0015 78.1505 62.7045 77.5056 62.1728C77.2263 61.9214 77.0059 61.6114 76.8603 61.2649C76.7147 60.9184 76.6475 60.5441 76.6634 60.1686C76.658 59.7677 76.7355 59.3701 76.8908 59.0005C77.0381 58.6561 77.2583 58.3478 77.5363 58.0968C77.837 57.8366 78.1858 57.6382 78.563 57.5127C78.9977 57.3619 79.4556 57.289 79.9156 57.2975H85.1351V66.9128H83.8194V63.1257H81.2742L77.5855 66.9435H75.8641L79.7926 63.0458V63.015ZM83.8194 62.0867V58.2996H80.2291C79.627 58.26 79.0321 58.4488 78.563 58.8284C78.3659 58.9948 78.2084 59.2032 78.1021 59.4382C77.9957 59.6733 77.9432 59.9291 77.9482 60.187C77.9436 60.4458 77.9963 60.7024 78.1026 60.9384C78.2089 61.1744 78.3661 61.3839 78.563 61.5519C79.0297 61.9364 79.6258 62.1278 80.2291 62.0867H83.8194Z" fill="#EA5A62"/><path d="M92.7155 65.9043H93.9881C94.5401 64.9528 94.9228 63.9127 95.1193 62.8304C95.3742 61.4105 95.4915 59.9693 95.4697 58.5269V57.2666H102.718V65.8736H104.323V69.925H103.007V66.8818H94.0618V69.925H92.7462V65.8736L92.7155 65.9043ZM101.402 65.9043V58.2994H96.7238V58.9695C96.7433 60.3609 96.6114 61.7503 96.3304 63.1132C96.1336 64.0882 95.7939 65.0287 95.3221 65.9043H101.402Z" fill="#EA5A62"/><path d="M110.274 67.1772C109.516 67.1967 108.762 67.0585 108.06 66.7714C107.481 66.5303 106.967 66.1553 106.56 65.6771C106.164 65.2031 105.869 64.6528 105.693 64.0602C105.5 63.4267 105.405 62.7675 105.411 62.1052C105.411 61.4797 105.507 60.8578 105.693 60.2609C105.871 59.6637 106.166 59.1078 106.56 58.6255C106.968 58.1337 107.481 57.7388 108.06 57.4697C108.757 57.1629 109.513 57.0139 110.274 57.0332C111.038 57.0112 111.797 57.1714 112.487 57.5005C113.07 57.7936 113.581 58.2138 113.981 58.7301C114.371 59.2454 114.652 59.8355 114.805 60.4637C114.969 61.1101 115.039 61.7769 115.014 62.4433H106.726C106.726 62.8933 106.792 63.3407 106.923 63.7713C107.042 64.2189 107.251 64.6374 107.538 65.0008C107.84 65.3696 108.215 65.673 108.638 65.8923C109.137 66.1428 109.691 66.2653 110.249 66.2488C111.015 66.3198 111.781 66.1094 112.403 65.6568C113.026 65.2042 113.462 64.5405 113.63 63.7897H114.964C114.75 64.7824 114.209 65.6744 113.427 66.3226C112.508 66.9751 111.392 67.292 110.267 67.2202L110.274 67.1772ZM113.698 61.4167C113.685 60.9803 113.595 60.5495 113.434 60.144C113.28 59.7434 113.05 59.3761 112.757 59.062C112.457 58.7412 112.095 58.4841 111.694 58.3059C111.246 58.1103 110.762 58.0139 110.274 58.0231C109.779 58.0128 109.289 58.1092 108.835 58.3059C108.432 58.4855 108.069 58.7424 107.765 59.062C107.472 59.3811 107.236 59.7495 107.071 60.1502C106.897 60.5541 106.781 60.9804 106.726 61.4167H113.698Z" fill="#EA5A62"/><path d="M116.87 67.0053H116.618L116.317 66.9684L116.028 66.9254L115.825 66.8762V65.831C115.99 65.8772 116.159 65.9081 116.329 65.9233C116.516 65.9506 116.705 65.965 116.895 65.9663C117.048 65.9643 117.2 65.9457 117.35 65.911C117.544 65.8555 117.718 65.7469 117.854 65.5974C118.06 65.3663 118.222 65.0997 118.333 64.8105C118.52 64.3245 118.652 63.8193 118.727 63.3043C118.837 62.6895 118.93 61.8595 118.997 60.882C119.065 59.9045 119.102 58.7119 119.102 57.2979H126.307V66.9131H124.991V58.3061H120.356C120.356 59.6955 120.313 60.8759 120.227 61.8411C120.158 62.6567 120.031 63.4662 119.846 64.2634C119.723 64.7953 119.528 65.3082 119.268 65.788C119.089 66.1085 118.846 66.3889 118.555 66.6118C118.314 66.7892 118.033 66.9053 117.737 66.9499C117.45 66.9923 117.16 67.0128 116.87 67.0114V67.0053Z" fill="#EA5A62"/><path d="M132.031 67.1774C131.555 67.1793 131.08 67.1257 130.617 67.0175C130.206 66.9256 129.818 66.7543 129.473 66.5134C129.147 66.2905 128.881 65.9906 128.699 65.6404C128.505 65.2599 128.408 64.8377 128.416 64.4108C128.381 63.8417 128.561 63.2802 128.92 62.837C129.28 62.441 129.735 62.1427 130.242 61.9702C130.839 61.762 131.458 61.6217 132.086 61.5521L134.189 61.3246C134.453 61.3246 134.693 61.2632 134.908 61.2263C135.097 61.1997 135.279 61.1349 135.443 61.0357C135.581 60.9385 135.691 60.8072 135.762 60.6545C135.845 60.4605 135.885 60.2507 135.879 60.0398C135.893 59.7001 135.817 59.3627 135.658 59.0623C135.513 58.805 135.3 58.5924 135.043 58.4475C134.766 58.2895 134.461 58.1852 134.146 58.1401C133.782 58.0789 133.414 58.0501 133.045 58.054C132.325 58.0226 131.613 58.2067 130.998 58.5827C130.729 58.7722 130.512 59.0264 130.367 59.3219C130.222 59.6173 130.153 59.9445 130.168 60.2734H128.852C128.853 59.7883 128.972 59.3106 129.199 58.882C129.426 58.4534 129.754 58.0868 130.156 57.8142C131.083 57.2639 132.152 56.9968 133.23 57.0457C133.708 57.0473 134.185 57.0884 134.656 57.1687C135.104 57.2428 135.535 57.3969 135.928 57.6236C136.308 57.855 136.623 58.1785 136.844 58.5643C137.1 59.0505 137.223 59.5954 137.201 60.1443V65.247C137.201 65.7203 137.459 65.9601 137.97 65.9601C138.113 65.9633 138.255 65.9361 138.388 65.8802V66.8147L137.982 66.87C137.865 66.87 137.711 66.87 137.533 66.87C137.26 66.8802 136.987 66.8406 136.728 66.7532C136.543 66.6808 136.382 66.5597 136.26 66.4027C136.146 66.2464 136.07 66.0652 136.039 65.874C136.006 65.6481 135.989 65.42 135.99 65.1916H135.947C135.726 65.4838 135.485 65.7611 135.228 66.0216C134.988 66.2664 134.712 66.4737 134.41 66.6364C134.083 66.8056 133.736 66.9317 133.377 67.0114C132.932 67.1029 132.479 67.1462 132.025 67.1405L132.031 67.1774ZM132.135 66.206C132.622 66.2076 133.107 66.1393 133.574 66.0031C134.007 65.8704 134.412 65.6623 134.773 65.3884C135.11 65.1328 135.389 64.8078 135.59 64.4354C135.794 64.0446 135.897 63.6095 135.892 63.169V61.6382H135.867C135.751 61.7955 135.58 61.9031 135.387 61.9394C135.185 61.9937 134.98 62.0368 134.773 62.0685C134.213 62.1546 133.641 62.2345 133.051 62.3021C132.505 62.3622 131.964 62.4649 131.434 62.6095C130.984 62.7204 130.564 62.9304 130.205 63.2243C130.049 63.3562 129.925 63.5226 129.844 63.7104C129.763 63.8981 129.726 64.1021 129.738 64.3063C129.734 64.5832 129.802 64.8563 129.934 65.0994C130.07 65.3381 130.252 65.5472 130.469 65.7142C130.699 65.8857 130.957 66.0148 131.232 66.0953C131.527 66.1837 131.833 66.2273 132.141 66.2245L132.135 66.206Z" fill="#EA5A62"/></svg>