<svg width="743" height="294" viewBox="0 0 743 294" fill="none" xmlns="http://www.w3.org/2000/svg">
<path d="M1243.76 269.928C1186.96 253.443 1143.37 218.252 1102.09 179.03C1062.42 141.359 1023.08 101.672 971.313 78.7537C864.812 31.4963 739.73 55.4996 635.409 95.9617C518.855 141.23 409.275 209.338 283.321 229.207C221.529 238.948 155.269 234.375 101.569 201.535C56.9694 174.431 32.7756 131.463 22.7222 83.1978C17.0007 55.758 15.0392 27.879 13.4862 0H0C0.435913 7.90637 0.871704 15.7869 1.47107 23.6674C5.01294 69.452 11.5518 116.813 36.9714 156.784C65.715 202.181 116.691 230.99 170.636 241.48C236.487 254.27 304.763 242.075 367.617 222.257C428.183 203.189 485.507 176.24 542.912 150.04C652.437 100.044 773.814 49.2727 898.405 70.3822C927.617 75.1472 955.774 84.5459 981.693 98.1837C1007.17 111.8 1029.62 129.706 1050.76 148.748C1092.04 186.006 1129.5 228.38 1178.87 256.57C1230.56 285.844 1290.84 298.478 1350.73 292.587H1351V279.513C1314.94 283.26 1278.45 279.998 1243.76 269.928Z" fill="url(#paint0_linear)"/>
<defs>
<linearGradient id="paint0_linear" x1="675.497" y1="294" x2="675.497" y2="0" gradientUnits="userSpaceOnUse">
<stop stop-color="#FECE87"/>
<stop offset="1" stop-color="#D8A460"/>
</linearGradient>
</defs>
</svg>
