<svg width="30" height="30" viewBox="0 0 30 30" fill="none" xmlns="http://www.w3.org/2000/svg">
<path d="M14.5405 20.1106C13.6828 20.1106 12.9883 20.8254 12.9883 21.6832C12.9883 22.5206 13.6623 23.2559 14.5405 23.2559C15.4187 23.2559 16.1132 22.5207 16.1132 21.6832C16.1132 20.8254 15.3984 20.1106 14.5405 20.1106Z" fill="#314829"/>
<path d="M14.806 8.20329C12.0488 8.20329 10.7825 9.83717 10.7825 10.9401C10.7825 11.7367 11.4565 12.1043 12.008 12.1043C13.1108 12.1043 12.6615 10.5316 14.7448 10.5316C15.766 10.5316 16.583 10.981 16.583 11.9205C16.583 13.0234 15.4392 13.6565 14.7652 14.2284C14.1729 14.739 13.3968 15.5764 13.3968 17.3329C13.3968 18.3949 13.6827 18.7013 14.5201 18.7013C15.5209 18.7013 15.7251 18.252 15.7251 17.8639C15.7251 16.8018 15.7456 16.1891 16.8689 15.3109C17.4203 14.882 19.1564 13.4932 19.1564 11.5733C19.1564 9.65342 17.4203 8.20329 14.806 8.20329Z" fill="#314829"/>
<path d="M15 0C6.70992 0 0 6.70881 0 15V28.8281C0 29.4754 0.524648 30 1.17188 30H15C23.29 30 30 23.2912 30 15C30 6.70992 23.2912 0 15 0ZM15 27.6562H2.34375V15C2.34375 8.00525 8.00432 2.34375 15 2.34375C21.9947 2.34375 27.6562 8.00432 27.6562 15C27.6562 21.9947 21.9957 27.6562 15 27.6562Z" fill="#314829"/>
</svg>
