<svg width="40" height="40" viewBox="0 0 40 40" fill="none" xmlns="http://www.w3.org/2000/svg">
<path d="M24.6273 8.55225H15.373C11.612 8.55225 8.55234 11.6119 8.55234 15.3729V24.6272C8.55234 28.3879 11.612 31.4479 15.373 31.4479H24.6273C28.3881 31.4479 31.448 28.3881 31.448 24.6272V15.3729C31.448 11.6119 28.3882 8.55225 24.6273 8.55225ZM29.1447 24.6272C29.1447 27.1221 27.1222 29.1446 24.6273 29.1446H15.373C12.8782 29.1446 10.8557 27.1221 10.8557 24.6272V15.3729C10.8557 12.8781 12.8782 10.8555 15.373 10.8555H24.6273C27.1222 10.8555 29.1447 12.8782 29.1447 15.3729V24.6272Z" fill="url(#paint0_linear)"/>
<path d="M19.9999 14.0784C16.7347 14.0784 14.0782 16.735 14.0782 20.0001C14.0782 23.265 16.7347 25.9216 19.9999 25.9216C23.265 25.9216 25.9214 23.2653 25.9214 20.0001C25.9214 16.735 23.265 14.0784 19.9999 14.0784ZM19.9999 23.6183C18.0015 23.6183 16.3814 21.9986 16.3814 20.0001C16.3814 18.0017 18.0015 16.3817 19.9999 16.3817C21.9982 16.3817 23.6181 18.0016 23.6181 20.0001C23.6181 21.9985 21.9982 23.6183 19.9999 23.6183Z" fill="url(#paint1_linear)"/>
<path d="M27.3523 14.123C27.3523 14.9065 26.7169 15.5419 25.9333 15.5419C25.1497 15.5419 24.5143 14.9065 24.5143 14.123C24.5143 13.3393 25.1497 12.704 25.9333 12.704C26.7171 12.704 27.3523 13.3391 27.3523 14.123Z" fill="url(#paint2_linear)"/>
<path d="M24.6273 8.55225H19.9553V10.8555H24.6273C27.1222 10.8555 29.1447 12.8782 29.1447 15.3729V24.6272C29.1447 27.1221 27.1222 29.1446 24.6273 29.1446H19.9553V31.4479H24.6273C28.3881 31.4479 31.448 28.3881 31.448 24.6272V15.3729C31.448 11.6119 28.3882 8.55225 24.6273 8.55225Z" fill="url(#paint3_linear)"/>
<path d="M19.9999 14.0784C19.9848 14.0784 19.9704 14.0795 19.9553 14.0795V16.3828C19.9702 16.3826 19.9848 16.3817 19.9999 16.3817C21.9982 16.3817 23.6181 18.0016 23.6181 20.0001C23.6181 21.9985 21.9982 23.6183 19.9999 23.6183C19.9848 23.6183 19.9702 23.6174 19.9553 23.6172V25.9205C19.9704 25.9207 19.9848 25.9216 19.9999 25.9216C23.265 25.9216 25.9214 23.2653 25.9214 20.0001C25.9214 16.735 23.265 14.0784 19.9999 14.0784Z" fill="url(#paint4_linear)"/>
<defs>
<linearGradient id="paint0_linear" x1="19.1356" y1="-12.9124" x2="23.9138" y2="-12.4868" gradientUnits="userSpaceOnUse">
<stop stop-color="#FECE87"/>
<stop offset="1" stop-color="#D8A460"/>
</linearGradient>
<linearGradient id="paint1_linear" x1="19.1356" y1="-12.9124" x2="23.9138" y2="-12.4868" gradientUnits="userSpaceOnUse">
<stop stop-color="#FECE87"/>
<stop offset="1" stop-color="#D8A460"/>
</linearGradient>
<linearGradient id="paint2_linear" x1="19.1356" y1="-12.9124" x2="23.9138" y2="-12.4868" gradientUnits="userSpaceOnUse">
<stop stop-color="#FECE87"/>
<stop offset="1" stop-color="#D8A460"/>
</linearGradient>
<linearGradient id="paint3_linear" x1="19.1356" y1="-12.9124" x2="23.9138" y2="-12.4868" gradientUnits="userSpaceOnUse">
<stop stop-color="#FECE87"/>
<stop offset="1" stop-color="#D8A460"/>
</linearGradient>
<linearGradient id="paint4_linear" x1="19.1356" y1="-12.9124" x2="23.9138" y2="-12.4868" gradientUnits="userSpaceOnUse">
<stop stop-color="#FECE87"/>
<stop offset="1" stop-color="#D8A460"/>
</linearGradient>
</defs>
</svg>
