<svg width="40" height="40" viewBox="0 0 40 40" fill="none" xmlns="http://www.w3.org/2000/svg">
<path d="M29.9779 10.4315C30.7753 10.1204 31.5995 10.818 31.4244 11.6557L27.8486 28.7479C27.6816 29.5493 26.7402 29.9102 26.0803 29.4254L20.6823 25.4631L17.9308 28.2726C17.4473 28.7655 16.6136 28.5648 16.4062 27.9076L14.421 21.6058L9.09978 20.0341C8.4008 19.828 8.36041 18.8557 9.03783 18.5904L29.9779 10.4315ZM27.353 14.224C27.586 14.0179 27.3153 13.6544 27.0513 13.8187L15.5657 20.9419C15.3637 21.0671 15.2708 21.3136 15.3421 21.5412L16.9085 28.4193C16.9395 28.5244 17.0903 28.5095 17.1038 28.4004L17.4539 23.1587C17.4674 23.0294 17.5293 22.9109 17.6263 22.8247L27.353 14.224Z" fill="url(#paint0_linear)"/>
<path d="M27.0513 13.8183C27.3153 13.654 27.586 14.0176 27.353 14.2237L17.6265 22.8244C17.5295 22.9105 17.4676 23.0291 17.4541 23.1583L17.1039 28.4001C17.0905 28.5091 16.9396 28.524 16.9086 28.4189L15.3423 21.5408C15.2708 21.3132 15.3638 21.0667 15.5658 20.9415L27.0513 13.8183Z" fill="#9EC2E5"/>
<path d="M16.9652 28.4906C16.712 28.4004 16.4978 28.1983 16.4063 27.9074L14.4211 21.6057L9.09987 20.034C8.40089 19.8279 8.3605 18.8555 9.03792 18.5902L29.9779 10.4314C30.4924 10.2307 31.019 10.4502 31.2789 10.857C31.2304 10.7829 31.1725 10.7143 31.1079 10.6537L16.9018 22.2509V22.7587L16.8237 22.7021L16.9018 25.8994V28.4637C16.9221 28.4732 16.9435 28.4812 16.9651 28.488V28.4906H16.9652Z" fill="url(#paint1_linear)"/>
<path d="M31.4473 11.3685C31.4513 11.46 31.4446 11.557 31.4244 11.6554L27.8486 28.7476C27.6816 29.5489 26.7401 29.9099 26.0802 29.425L20.6823 25.4628L16.9018 22.7584V22.2507L31.1079 10.6533C31.1725 10.7139 31.2305 10.7826 31.2789 10.8567C31.2883 10.8729 31.2977 10.8876 31.3072 10.9025C31.3152 10.9186 31.3247 10.9348 31.3328 10.9496C31.3408 10.9657 31.349 10.9819 31.3557 10.9981C31.3637 11.0156 31.3705 11.0318 31.3773 11.0493C31.3826 11.0641 31.3894 11.0802 31.3948 11.0978C31.4123 11.1503 31.4257 11.2042 31.4351 11.2607C31.4405 11.2957 31.4446 11.3308 31.4473 11.3685Z" fill="url(#paint2_linear)"/>
<path d="M20.6823 25.4626L17.9308 28.2721C17.9079 28.2949 17.8837 28.3178 17.8594 28.3381C17.8352 28.3583 17.8109 28.3758 17.7853 28.3933C17.784 28.3946 17.784 28.3946 17.784 28.3946C17.7328 28.4283 17.6803 28.4566 17.6251 28.4795C17.5968 28.4903 17.5699 28.501 17.5416 28.5078C17.4244 28.5428 17.3045 28.5522 17.186 28.5401C17.1551 28.5374 17.1241 28.5321 17.0945 28.5267C17.0904 28.5267 17.0864 28.5253 17.0824 28.524C17.0527 28.516 17.0231 28.5078 16.9934 28.4984C16.984 28.4957 16.9746 28.493 16.9652 28.4876L16.9019 25.8991V22.7583L20.6823 25.4626Z" fill="url(#paint3_linear)"/>
<path d="M17.8594 28.3384C17.8352 28.3586 17.8109 28.3774 17.7853 28.3949V28.3936C17.811 28.3761 17.8352 28.3586 17.8594 28.3384Z" fill="url(#paint4_linear)"/>
<path d="M17.7858 28.3936V28.3954C17.7858 28.3954 17.7858 28.3936 17.784 28.3954C17.784 28.3954 17.784 28.3954 17.7858 28.3936Z" fill="url(#paint5_linear)"/>
<path d="M17.6251 28.4799C17.6804 28.457 17.7329 28.4287 17.784 28.395C17.7329 28.4286 17.6789 28.4569 17.6251 28.4799Z" fill="url(#paint6_linear)"/>
<path d="M17.1861 28.5404C17.3046 28.5525 17.4244 28.5431 17.5416 28.5081C17.4568 28.535 17.3692 28.5471 17.2817 28.5471C17.2547 28.5471 17.2278 28.5458 17.2022 28.5431C17.1968 28.5431 17.1915 28.5431 17.1861 28.5404Z" fill="url(#paint7_linear)"/>
<path d="M17.2816 28.547C17.2547 28.547 17.2277 28.5457 17.2022 28.543C17.2277 28.5457 17.2547 28.547 17.2816 28.547Z" fill="url(#paint8_linear)"/>
<path d="M17.186 28.5404C17.1914 28.543 17.1968 28.543 17.2022 28.543C17.1739 28.5417 17.1482 28.5376 17.1214 28.5322C17.1429 28.5364 17.1644 28.539 17.186 28.5404Z" fill="url(#paint9_linear)"/>
<path d="M17.186 28.5403C17.1645 28.539 17.1429 28.5362 17.1214 28.5322C17.112 28.5309 17.1026 28.5296 17.0945 28.5269C17.1241 28.5322 17.155 28.5376 17.186 28.5403Z" fill="url(#paint10_linear)"/>
<path d="M16.9935 28.4985C17.0231 28.508 17.0528 28.516 17.0824 28.5242C17.0703 28.5215 17.0582 28.5188 17.046 28.5161C17.0407 28.5148 17.0353 28.5135 17.0312 28.5107C17.019 28.508 17.0056 28.5039 16.9935 28.4985Z" fill="url(#paint11_linear)"/>
<path d="M17.046 28.5159C17.0595 28.5188 17.073 28.5219 17.0865 28.5249C17.073 28.5234 17.0595 28.5204 17.046 28.5159Z" fill="url(#paint12_linear)"/>
<path d="M16.9934 28.4984C17.0056 28.5038 17.0191 28.5079 17.0312 28.5105C17.0109 28.5065 16.9908 28.4997 16.9706 28.4917C16.9786 28.4944 16.9853 28.4971 16.9934 28.4984Z" fill="url(#paint13_linear)"/>
<path d="M17.003 28.5022C16.9922 28.5004 16.9831 28.4967 16.9723 28.4931C16.9706 28.4949 16.9669 28.4931 16.9651 28.4914V28.4878C16.9777 28.4949 16.9904 28.4985 17.003 28.5022Z" fill="url(#paint14_linear)"/>
<path d="M16.9018 25.8992L16.9651 28.4877C16.9435 28.481 16.922 28.4729 16.9018 28.4635V25.8992Z" fill="url(#paint15_linear)"/>
<path d="M16.9018 22.7585V25.8992L16.8237 22.7019L16.9018 22.7585Z" fill="url(#paint16_linear)"/>
<path d="M27.3529 14.2239L17.6264 22.8246C17.5294 22.9107 17.4675 23.0293 17.454 23.1586L17.1044 28.4007C17.091 28.5098 16.9401 28.5247 16.9078 28.4196L15.3422 21.5411C15.2708 21.3135 15.3637 21.067 15.5658 20.9418L27.0513 13.8186C27.3153 13.6542 27.586 14.0179 27.3529 14.2239Z" fill="#D8A460"/>
<defs>
<linearGradient id="paint0_linear" x1="20.0001" y1="10.356" x2="20.0001" y2="29.6445" gradientUnits="userSpaceOnUse">
<stop stop-color="#FECE87"/>
<stop offset="1" stop-color="#D8A460"/>
</linearGradient>
<linearGradient id="paint1_linear" x1="19.9155" y1="10.356" x2="19.9155" y2="28.4906" gradientUnits="userSpaceOnUse">
<stop stop-color="#FECE87"/>
<stop offset="1" stop-color="#D8A460"/>
</linearGradient>
<linearGradient id="paint2_linear" x1="23.6258" y1="-7.15062" x2="26.6715" y2="-6.94281" gradientUnits="userSpaceOnUse">
<stop stop-color="#FECE87"/>
<stop offset="1" stop-color="#D8A460"/>
</linearGradient>
<linearGradient id="paint3_linear" x1="18.7921" y1="22.7583" x2="18.7921" y2="28.5451" gradientUnits="userSpaceOnUse">
<stop stop-color="#FECE87"/>
<stop offset="1" stop-color="#D8A460"/>
</linearGradient>
<linearGradient id="paint4_linear" x1="17.8224" y1="28.3384" x2="17.8224" y2="28.3949" gradientUnits="userSpaceOnUse">
<stop stop-color="#FECE87"/>
<stop offset="1" stop-color="#D8A460"/>
</linearGradient>
<linearGradient id="paint5_linear" x1="17.7849" y1="28.3936" x2="17.7849" y2="28.3954" gradientUnits="userSpaceOnUse">
<stop stop-color="#FECE87"/>
<stop offset="1" stop-color="#D8A460"/>
</linearGradient>
<linearGradient id="paint6_linear" x1="17.7046" y1="28.395" x2="17.7046" y2="28.4799" gradientUnits="userSpaceOnUse">
<stop stop-color="#FECE87"/>
<stop offset="1" stop-color="#D8A460"/>
</linearGradient>
<linearGradient id="paint7_linear" x1="17.3638" y1="28.5081" x2="17.3638" y2="28.5471" gradientUnits="userSpaceOnUse">
<stop stop-color="#FECE87"/>
<stop offset="1" stop-color="#D8A460"/>
</linearGradient>
<linearGradient id="paint8_linear" x1="17.2419" y1="28.543" x2="17.2419" y2="28.547" gradientUnits="userSpaceOnUse">
<stop stop-color="#FECE87"/>
<stop offset="1" stop-color="#D8A460"/>
</linearGradient>
<linearGradient id="paint9_linear" x1="17.1618" y1="28.5322" x2="17.1618" y2="28.543" gradientUnits="userSpaceOnUse">
<stop stop-color="#FECE87"/>
<stop offset="1" stop-color="#D8A460"/>
</linearGradient>
<linearGradient id="paint10_linear" x1="17.1403" y1="28.5269" x2="17.1403" y2="28.5403" gradientUnits="userSpaceOnUse">
<stop stop-color="#FECE87"/>
<stop offset="1" stop-color="#D8A460"/>
</linearGradient>
<linearGradient id="paint11_linear" x1="17.0379" y1="28.4985" x2="17.0379" y2="28.5242" gradientUnits="userSpaceOnUse">
<stop stop-color="#FECE87"/>
<stop offset="1" stop-color="#D8A460"/>
</linearGradient>
<linearGradient id="paint12_linear" x1="17.0663" y1="28.5159" x2="17.0663" y2="28.5249" gradientUnits="userSpaceOnUse">
<stop stop-color="#FECE87"/>
<stop offset="1" stop-color="#D8A460"/>
</linearGradient>
<linearGradient id="paint13_linear" x1="17.0009" y1="28.4917" x2="17.0009" y2="28.5105" gradientUnits="userSpaceOnUse">
<stop stop-color="#FECE87"/>
<stop offset="1" stop-color="#D8A460"/>
</linearGradient>
<linearGradient id="paint14_linear" x1="16.9841" y1="28.4878" x2="16.9841" y2="28.5022" gradientUnits="userSpaceOnUse">
<stop stop-color="#FECE87"/>
<stop offset="1" stop-color="#D8A460"/>
</linearGradient>
<linearGradient id="paint15_linear" x1="16.9334" y1="25.8992" x2="16.9334" y2="28.4877" gradientUnits="userSpaceOnUse">
<stop stop-color="#FECE87"/>
<stop offset="1" stop-color="#D8A460"/>
</linearGradient>
<linearGradient id="paint16_linear" x1="16.8627" y1="22.7019" x2="16.8627" y2="25.8992" gradientUnits="userSpaceOnUse">
<stop stop-color="#FECE87"/>
<stop offset="1" stop-color="#D8A460"/>
</linearGradient>
</defs>
</svg>
