<svg width="40" height="40" viewBox="0 0 40 40" fill="none" xmlns="http://www.w3.org/2000/svg">
<path d="M19.4404 8.47234C13.3444 8.76234 8.53385 13.8392 8.55221 19.9419C8.55783 21.8007 9.00658 23.5552 9.7983 25.1056L8.58291 31.0052C8.51721 31.3244 8.80502 31.6038 9.12205 31.5287L14.9029 30.1591C16.3881 30.8991 18.0563 31.3262 19.8218 31.3532C26.0525 31.4484 31.2477 26.5012 31.4421 20.2728C31.6501 13.5964 26.1399 8.1532 19.4404 8.47234ZM26.3383 26.2449C24.6454 27.9378 22.3943 28.8702 20 28.8702C18.5981 28.8702 17.2558 28.5556 16.0105 27.9354L15.2056 27.5343L11.6611 28.3739L12.4071 24.7523L12.0106 23.9755C11.3641 22.7094 11.0363 21.3405 11.0363 19.9065C11.0363 17.5121 11.9687 15.2612 13.6616 13.5682C15.3394 11.8902 17.6271 10.9429 20.0002 10.9429C22.3942 10.9429 24.6453 11.8753 26.3382 13.5682C28.0311 15.2611 28.9635 17.5122 28.9635 19.9062C28.9637 22.2794 28.0162 24.567 26.3383 26.2449Z" fill="url(#paint0_linear)"/>
<path d="M25.5558 22.3891L23.3383 21.7525C23.047 21.669 22.7329 21.7517 22.5205 21.9681L21.9782 22.5205C21.7496 22.7536 21.4027 22.8283 21.1 22.7059C20.0511 22.2814 17.8444 20.3194 17.2812 19.3383C17.1184 19.0551 17.1453 18.7014 17.345 18.4428L17.8183 17.8304C18.0038 17.5905 18.0428 17.2681 17.9203 16.9908L16.9874 14.8808C16.7639 14.3755 16.1182 14.2283 15.6962 14.5851C15.0774 15.1087 14.3431 15.9039 14.2539 16.7851C14.0965 18.3388 14.7629 20.2972 17.2822 22.6488C20.1929 25.3658 22.5239 25.7245 24.0418 25.3569C24.9027 25.1486 25.5907 24.3128 26.0246 23.6283C26.3207 23.1614 26.0867 22.5417 25.5558 22.3891Z" fill="url(#paint1_linear)"/>
<path d="M27.8128 11.5396L26.0766 13.3191C26.1649 13.4008 26.2528 13.4827 26.3382 13.5682C28.0311 15.2611 28.9635 17.5122 28.9635 19.9062C28.9637 22.2794 28.0162 24.567 26.3383 26.2449C24.6454 27.9378 22.3943 28.8702 20 28.8702C18.5981 28.8702 17.2558 28.5556 16.0105 27.9354L15.2056 27.5343L11.6611 28.3739L11.7345 28.0184L8.59588 31.2349C8.6651 31.443 8.88541 31.5847 9.12205 31.5287L14.9029 30.1591C16.3881 30.8991 18.0563 31.3262 19.8218 31.3532C26.0525 31.4484 31.2477 26.5012 31.4421 20.2728C31.5495 16.8248 30.1317 13.7058 27.8128 11.5396Z" fill="url(#paint2_linear)"/>
<path d="M25.5558 22.3891L23.3383 21.7525C23.047 21.669 22.7329 21.7517 22.5205 21.9681L21.9782 22.5205C21.7496 22.7536 21.4027 22.8283 21.1 22.7059C20.4941 22.4607 19.5023 21.7025 18.6637 20.9166L17.1221 22.4967C17.175 22.5473 17.2277 22.5978 17.2822 22.6488C20.1929 25.3658 22.5239 25.7245 24.0418 25.3569C24.9027 25.1486 25.5907 24.3128 26.0246 23.6283C26.3207 23.1614 26.0867 22.5417 25.5558 22.3891Z" fill="url(#paint3_linear)"/>
<defs>
<linearGradient id="paint0_linear" x1="19.1354" y1="-13.1804" x2="23.9142" y2="-12.7582" gradientUnits="userSpaceOnUse">
<stop stop-color="#FECE87"/>
<stop offset="1" stop-color="#D8A460"/>
</linearGradient>
<linearGradient id="paint1_linear" x1="19.1354" y1="-13.1804" x2="23.9142" y2="-12.7582" gradientUnits="userSpaceOnUse">
<stop stop-color="#FECE87"/>
<stop offset="1" stop-color="#D8A460"/>
</linearGradient>
<linearGradient id="paint2_linear" x1="19.1354" y1="-13.1804" x2="23.9142" y2="-12.7582" gradientUnits="userSpaceOnUse">
<stop stop-color="#FECE87"/>
<stop offset="1" stop-color="#D8A460"/>
</linearGradient>
<linearGradient id="paint3_linear" x1="19.1354" y1="-13.1804" x2="23.9142" y2="-12.7582" gradientUnits="userSpaceOnUse">
<stop stop-color="#FECE87"/>
<stop offset="1" stop-color="#D8A460"/>
</linearGradient>
</defs>
</svg>
